<?xml version="1.0" standalone="no"?>
<!DOCTYPE svg PUBLIC "-//W3C//DTD SVG 20010904//EN"
 "http://www.w3.org/TR/2001/REC-SVG-20010904/DTD/svg10.dtd">
<svg version="1.0" xmlns="http://www.w3.org/2000/svg"
 width="2184.000000pt" height="640.000000pt" viewBox="0 0 2184.000000 640.000000"
 preserveAspectRatio="xMidYMid meet">

<g transform="translate(0.000000,640.000000) scale(0.100000,-0.100000)"
fill="#000000" stroke="none">
<path d="M0 4601 c0 -1152 4 -1836 10 -1902 70 -706 365 -1335 860 -1829 458
-458 1025 -742 1680 -841 175 -27 576 -33 750 -11 682 85 1271 372 1756 856
475 476 745 1024 851 1726 15 105 17 274 20 1958 l4 1842 -2966 0 -2965 0 0
-1799z m5657 -183 c-3 -1699 -3 -1714 -24 -1843 -54 -327 -138 -585 -279 -855
-376 -720 -1067 -1241 -1854 -1399 -350 -70 -743 -68 -1098 5 -704 145 -1356
605 -1737 1228 -207 338 -342 730 -384 1118 -7 65 -11 655 -11 1778 l0 1680
2695 0 2696 0 -4 -1712z"/>
<path d="M2776 5568 c-317 -27 -681 -153 -941 -325 -529 -350 -856 -886 -924
-1515 -6 -54 -11 -293 -11 -533 l0 -435 23 0 c47 1 157 29 206 54 28 15 51 24
51 22 0 -2 -15 -27 -34 -55 -19 -28 -45 -77 -58 -108 -22 -56 -23 -70 -26
-396 -4 -371 0 -408 50 -509 38 -77 143 -185 213 -221 122 -61 129 -62 610
-62 426 0 442 1 510 22 186 59 323 199 369 379 13 51 16 125 16 408 0 384 2
399 62 436 62 38 151 17 182 -43 14 -27 16 -84 19 -397 3 -318 6 -372 21 -420
58 -176 190 -309 361 -363 68 -21 83 -22 520 -22 446 0 451 0 515 23 164 59
277 171 332 329 22 66 23 78 23 408 0 329 -1 342 -23 407 -13 37 -41 95 -63
128 -22 34 -36 60 -32 58 87 -44 197 -77 256 -78 16 0 17 47 15 898 l-3 897
-257 3 -258 2 0 250 0 250 -255 0 -255 0 0 260 0 260 -557 -1 c-307 -1 -603
-6 -657 -11z m-686 -1557 c94 -30 181 -91 255 -180 136 -164 307 -261 517
-292 155 -23 313 7 473 88 80 42 105 61 225 184 118 120 145 143 210 173 275
130 585 8 701 -275 20 -49 23 -78 29 -289 6 -217 9 -240 32 -307 14 -40 42
-95 62 -123 37 -51 37 -61 1 -34 -11 8 -55 26 -98 39 l-78 25 -439 0 c-435 0
-440 0 -514 -24 -41 -13 -102 -42 -136 -65 l-62 -41 -41 33 c-100 79 -166 101
-286 95 -101 -5 -173 -33 -241 -94 -29 -26 -45 -35 -54 -28 -49 37 -118 77
-166 97 -54 21 -65 22 -504 25 -483 3 -511 1 -615 -48 -34 -16 -59 -24 -54
-17 4 6 20 31 35 54 61 90 70 136 78 393 6 200 10 243 28 292 96 265 373 402
642 319z m316 -1280 c51 -23 104 -75 130 -127 17 -35 19 -66 22 -331 2 -186
-1 -307 -8 -332 -16 -60 -68 -121 -129 -153 l-54 -29 -443 3 -442 3 -43 30
c-24 17 -57 50 -74 74 l-30 43 -3 319 c-3 295 -1 323 16 362 28 62 66 102 124
131 l52 26 420 0 c389 0 424 -2 462 -19z m2016 7 c50 -15 122 -78 151 -132 21
-39 22 -54 25 -336 2 -201 0 -308 -8 -335 -18 -64 -56 -112 -113 -145 l-52
-30 -433 0 c-349 0 -439 3 -466 14 -50 21 -112 81 -138 134 -22 46 -23 54 -23
347 0 332 1 335 66 410 19 21 56 49 84 61 50 24 52 24 459 24 285 0 421 -4
448 -12z"/>
<path d="M1690 2255 l0 -255 255 0 255 0 0 135 0 135 -30 0 c-93 0 -195 96
-215 203 l-7 37 -129 0 -129 0 0 -255z"/>
<path d="M3720 2255 l0 -255 260 0 261 0 -3 132 -3 132 -45 8 c-94 16 -184
105 -199 196 l-6 37 -133 3 -132 3 0 -256z"/>
<path d="M8345 6386 c-248 -42 -428 -125 -580 -268 -222 -209 -336 -495 -352
-883 -25 -590 232 -1032 695 -1199 294 -105 673 -94 937 28 287 133 484 400
550 749 25 131 55 117 -248 117 l-263 0 -18 -75 c-69 -294 -295 -475 -559
-450 -326 31 -516 316 -516 775 0 393 141 663 391 749 211 73 449 1 573 -174
56 -78 83 -138 110 -240 l20 -80 263 -3 262 -2 0 27 c-1 46 -36 193 -69 284
-122 334 -368 549 -720 630 -113 26 -364 34 -476 15z"/>
<path d="M12869 5768 c-1 -375 -5 -613 -10 -583 -31 189 -127 333 -272 406
-107 55 -296 74 -426 44 -162 -39 -295 -151 -375 -317 -84 -175 -119 -406 -98
-637 31 -331 151 -555 347 -654 94 -47 161 -61 280 -60 178 1 310 54 412 167
66 73 126 214 135 316 1 14 5 -83 8 -215 l5 -240 265 0 265 0 3 1203 2 1202
-270 0 -270 0 -1 -632z m-158 -575 c63 -35 119 -103 151 -183 20 -48 22 -74
23 -200 0 -143 0 -146 -32 -213 -47 -98 -84 -141 -155 -176 -52 -27 -72 -31
-138 -31 -66 0 -86 4 -138 31 -137 68 -202 217 -189 433 9 157 57 260 151 324
65 44 97 52 192 49 68 -3 89 -8 135 -34z"/>
<path d="M10455 5640 c-88 -14 -220 -57 -296 -97 -262 -136 -415 -443 -395
-788 19 -324 164 -568 409 -689 364 -181 879 -120 1119 132 102 107 159 215
200 380 28 111 30 337 5 449 -40 175 -120 320 -234 422 -72 65 -227 143 -343
172 -97 24 -361 35 -465 19z m309 -430 c112 -42 186 -153 206 -310 21 -160
-15 -317 -91 -404 -66 -75 -117 -99 -220 -104 -77 -4 -94 -1 -141 20 -141 65
-208 193 -208 403 0 215 85 358 240 406 51 15 158 10 214 -11z"/>
<path d="M14285 5636 c-325 -62 -532 -252 -609 -558 -60 -241 -31 -525 77
-733 58 -112 172 -226 285 -284 251 -129 622 -132 870 -7 188 95 317 249 371
446 12 41 21 76 21 77 0 2 -117 3 -259 3 l-259 0 -12 -34 c-28 -86 -138 -166
-247 -181 -184 -24 -321 101 -351 323 l-9 62 569 0 568 0 0 68 c0 80 -23 236
-46 312 -73 248 -258 422 -519 491 -103 27 -345 35 -450 15z m331 -421 c74
-46 137 -154 158 -267 l7 -38 -306 0 c-349 0 -320 -10 -285 101 34 112 93 184
180 224 24 11 60 14 116 13 70 -3 87 -7 130 -33z"/>
<path d="M7655 1889 c-187 -644 -341 -1177 -343 -1185 -3 -12 39 -14 275 -12
l278 3 71 270 71 270 460 3 460 2 69 -272 69 -273 293 -3 c230 -2 292 0 292
10 -1 7 -153 540 -338 1183 l-337 1170 -490 2 -490 3 -340 -1171z m990 444
c91 -353 165 -646 165 -652 0 -8 -104 -11 -346 -11 -273 0 -345 3 -342 13 2 6
80 308 174 670 107 416 172 651 176 640 4 -10 82 -307 173 -660z"/>
<path d="M14709 2428 c-1 -382 -5 -608 -10 -570 -30 232 -154 394 -352 458
-112 37 -277 40 -382 7 -285 -89 -445 -386 -445 -828 0 -185 42 -390 105 -515
98 -195 270 -307 486 -318 324 -16 547 169 588 488 6 47 9 -7 10 -197 l1 -263
265 0 265 0 0 1185 0 1185 -265 0 -265 0 -1 -632z m-222 -513 c141 -42 228
-176 240 -370 9 -156 -33 -291 -117 -375 -62 -62 -118 -84 -215 -84 -67 0 -88
4 -132 27 -132 68 -193 189 -195 388 -1 114 14 183 55 262 70 133 219 195 364
152z"/>
<path d="M10440 2344 c-157 -24 -242 -50 -355 -107 -106 -54 -234 -181 -287
-282 -127 -243 -136 -603 -23 -851 41 -90 72 -135 138 -203 144 -148 341 -226
598 -238 205 -9 396 31 539 114 83 49 194 160 243 243 38 66 89 210 102 288
l7 42 -262 -2 -261 -3 -23 -58 c-46 -111 -118 -176 -225 -198 -125 -26 -245
23 -315 129 -47 71 -66 136 -73 248 -14 213 52 366 185 431 76 37 192 40 263
5 66 -32 124 -95 156 -169 l27 -63 262 0 261 0 -8 48 c-53 287 -230 493 -499
582 -120 39 -338 60 -450 44z"/>
<path d="M12085 2343 c-275 -36 -460 -249 -520 -597 -19 -115 -20 -362 0 -483
31 -189 117 -369 224 -465 131 -118 330 -164 526 -123 207 44 357 198 397 409
13 67 13 63 18 -160 l5 -229 268 -3 267 -2 0 815 0 815 -267 -2 -268 -3 -3
-230 c-4 -218 -4 -227 -17 -170 -21 96 -53 170 -101 234 -109 145 -319 222
-529 194z m415 -424 c309 -71 351 -655 59 -804 -130 -67 -295 -27 -383 92 -92
125 -112 369 -42 527 65 148 210 221 366 185z"/>
<path d="M16172 2340 c-201 -28 -381 -114 -486 -230 -143 -158 -215 -392 -202
-655 21 -434 242 -705 634 -781 110 -21 294 -18 414 6 176 36 295 97 406 210
80 80 134 168 167 273 41 129 65 117 -228 117 l-254 0 -24 -51 c-30 -64 -94
-122 -168 -150 -72 -27 -185 -23 -247 9 -51 26 -110 91 -136 149 -17 39 -47
159 -48 191 0 9 119 12 564 12 366 0 567 4 571 10 3 5 2 67 -4 138 -32 401
-226 648 -574 732 -94 23 -291 33 -385 20z m264 -418 c80 -41 158 -165 171
-271 l6 -51 -305 0 -305 0 9 53 c25 142 110 253 219 286 52 16 158 7 205 -17z"/>
<path d="M18280 2330 c-130 -35 -239 -120 -295 -230 -26 -51 -64 -169 -67
-209 -1 -14 -5 75 -8 199 l-5 225 -267 3 -268 2 0 -815 0 -815 268 2 267 3 5
510 5 510 33 68 c23 46 47 77 73 97 75 54 186 62 269 20 43 -22 60 -41 91
-100 l24 -45 3 -533 3 -532 264 0 264 0 3 492 c3 427 6 500 21 543 26 79 70
140 124 171 41 25 58 29 124 29 67 0 82 -4 124 -30 35 -21 56 -45 74 -80 l26
-49 5 -536 5 -535 268 -3 268 -2 -3 577 c-4 562 -4 580 -26 658 -34 121 -74
199 -139 266 -67 70 -119 104 -203 130 -172 53 -362 23 -480 -79 -91 -78 -162
-232 -177 -385 l-7 -72 -12 77 c-30 193 -116 342 -240 414 -117 69 -281 90
-414 54z"/>
<path d="M20130 2303 c0 -10 80 -376 178 -813 l178 -795 215 -5 215 -5 -72
-325 c-40 -179 -73 -333 -73 -342 -1 -17 19 -18 282 -18 l282 0 249 1138 c137
625 252 1147 254 1160 l4 22 -281 0 c-233 0 -283 -2 -287 -14 -3 -8 -70 -367
-148 -798 l-143 -783 -22 120 c-12 66 -77 424 -144 795 l-122 675 -283 3
c-264 2 -282 1 -282 -15z"/>
</g>
</svg>
